PathFileType	4	(X/Y/Z)	C:\Users\Basilio\Documents\Thesis Gigler\squatting_fais\c3dfiles\041\SLS_pre_front3\markers_experimental.trc
DataRate	CameraRate	NumFrames	NumMarkers	Units	OrigDataRate	OrigDataStartFrame	OrigNumFrames
200.000000	200.000000	4	62	mm	200.000000	1216	1622
Frame#	Time	FHD			LBHD			RBHD			C7			T10			CLAV			LSHO			LUUPA			LMUPA			LDUPA			LLEP			LMEP			LRAD			LUL			LRFIN			RSHO			RUPA1			RMUPA			RDUPA			RLEP			RMEP			RRAD			RUL			RUFIN			LASI			RASI			USACR			LSACR			RSACR			LTHI1			LTHI2			LTHI3			LTHI4			LLFC			LMFC			LTIB1			LTIB2			LTIB3			LTIB4			LLMAL			LMMAL			LHEE			LMT1			LMT2			LMT5			RTHI			RTHI2			RTHI3			RTHI4			RLFC			RMFC			RTIB1			RTIB2			RTIB3			RTIB4			RLMAL			RMMAL			RHEE			RMT1			RMT2			RMT5			*61			
		X1	Y1	Z1	X2	Y2	Z2	X3	Y3	Z3	X4	Y4	Z4	X5	Y5	Z5	X6	Y6	Z6	X7	Y7	Z7	X8	Y8	Z8	X9	Y9	Z9	X10	Y10	Z10	X11	Y11	Z11	X12	Y12	Z12	X13	Y13	Z13	X14	Y14	Z14	X15	Y15	Z15	X16	Y16	Z16	X17	Y17	Z17	X18	Y18	Z18	X19	Y19	Z19	X20	Y20	Z20	X21	Y21	Z21	X22	Y22	Z22	X23	Y23	Z23	X24	Y24	Z24	X25	Y25	Z25	X26	Y26	Z26	X27	Y27	Z27	X28	Y28	Z28	X29	Y29	Z29	X30	Y30	Z30	X31	Y31	Z31	X32	Y32	Z32	X33	Y33	Z33	X34	Y34	Z34	X35	Y35	Z35	X36	Y36	Z36	X37	Y37	Z37	X38	Y38	Z38	X39	Y39	Z39	X40	Y40	Z40	X41	Y41	Z41	X42	Y42	Z42	X43	Y43	Z43	X44	Y44	Z44	X45	Y45	Z45	X46	Y46	Z46	X47	Y47	Z47	X48	Y48	Z48	X49	Y49	Z49	X50	Y50	Z50	X51	Y51	Z51	X52	Y52	Z52	X53	Y53	Z53	X54	Y54	Z54	X55	Y55	Z55	X56	Y56	Z56	X57	Y57	Z57	X58	Y58	Z58	X59	Y59	Z59	X60	Y60	Z60	X61	Y61	Z61	X62	Y62	Z62	

1217	6.08	-239.9129180908204	1782.045532226563	-1094.895874023438	-407.5744018554689	1694.211547851563	-1169.475952148438	-392.2828063964845	1708.192260742188	-1018.026611328125	-439.7832031250001	1557.242553710938	-1093.094604492188	-463.1988830566407	1242.866333007813	-1048.90625	-275.1390686035157	1501.828491210938	-1091.393676757813	-367.7566223144532	1543.218139648438	-1242.042114257813	-299.8721618652344	1473.180053710938	-1387.188354492188	-252.0138092041016	1479.919189453125	-1382.228515625	-256.8327941894532	1452.051635742188	-1436.355590820313	-218.0838775634766	1436.0947265625	-1464.667724609375	-195.4102172851563	1358.549194335938	-1430.387084960938	57.72137832641603	1398.847412109375	-1440.01171875	53.29896163940431	1407.49169921875	-1511.122802734375	131.7314758300782	1424.704711914063	-1438.944580078125	-355.6419372558594	1576.601806640625	-954.819763183594	-260.6938476562501	1516.280395507813	-794.400573730469	-223.9195861816407	1537.370849609375	-821.771667480469	-192.7598724365235	1520.274658203125	-774.566589355469	-147.4136199951172	1515.249633789063	-760.8502807617189	-146.3450317382813	1427.868896484375	-779.574645996094	89.93202209472658	1434.116943359375	-869.5432128906252	109.8308792114258	1458.077392578125	-800.714294433594	171.5394134521485	1426.96630859375	-892.6121826171877	-291.1618652343751	1049.195068359375	-1139.822265625	-302.6015930175782	1063.85986328125	-917.6462402343752	-474.4378051757814	1128.323852539063	-1039.276000976563	-487.2492675781251	1100.234619140625	-1064.602661132813	-492.7545166015626	1104.169067382813	-1010.060485839844	-380.6430969238282	831.3679199218752	-1194.689819335938	-333.7858886718751	760.1458740234376	-1184.714599609375	-288.0692443847657	771.1074218750002	-1174.759887695313	-354.9182128906251	704.3643188476564	-1170.353393554688	-313.4352111816407	533.3289794921876	-1139.771240234375	-312.5915222167969	523.2415771484376	-1021.270874023438	-295.2856445312501	345.4111633300782	-1071.3447265625	-342.2504272460938	301.0889282226563	-1133.20361328125	-305.0115356445313	296.2230224609376	-1104.919189453125	-317.1974487304688	221.7169647216797	-1067.465942382813	-380.9301757812501	131.2090911865235	-1104.517700195313	-345.9729003906251	136.2390899658203	-1021.583740234375	-447.9903564453126	117.0749969482422	-1062.417114257813	-242.6250610351563	61.46455764770509	-1037.578857421875	-236.4218139648438	58.32804489135744	-1083.176513671875	-284.6528625488282	46.18071746826173	-1136.252319335938	-311.7924804687501	802.5620727539065	-843.0352172851565	-254.7237396240235	771.095642089844	-853.1220703125002	-227.3801727294922	786.2709960937502	-861.3738403320315	-246.5743255615235	687.6776733398439	-863.1046142578127	-200.6991119384766	572.8695678710939	-869.5493774414065	-186.0024108886719	559.8283081054689	-986.6425781250002	-136.3973083496094	414.5433654785157	-879.473327636719	-204.0551300048829	324.8208618164063	-862.9923095703127	-157.525131225586	330.9112854003907	-866.0449218750002	-127.1681137084961	287.9338989257813	-894.4375610351565	-160.7852172851563	160.7238464355469	-879.453552246094	-136.0822143554688	186.350326538086	-959.0037231445315	-208.4182586669922	108.6683883666992	-931.5327148437502	2.041275978088379	154.0730133056641	-941.7432250976565	5.903223514556886	159.9153137207032	-889.8062744140627	-31.28772544860841	126.0801162719727	-844.4620361328127	-4216.796875000001	853.1362915039065	-3944.682617187501	
1218	6.085	-239.9884948730469	1782.494995117188	-1094.5595703125	-407.8486328125001	1694.530395507813	-1169.1123046875	-392.5216064453126	1708.6484375	-1017.4775390625	-439.888397216797	1557.57568359375	-1092.661376953125	-462.6109924316407	1243.0205078125	-1048.704956054688	-275.1150817871094	1502.507690429688	-1091.15869140625	-367.9953002929688	1543.421875	-1241.871337890625	-300.8325805664063	1472.5302734375	-1387.20654296875	-252.7646789550782	1478.902587890625	-1382.3046875	-257.8355407714844	1450.951538085938	-1436.485595703125	-219.1741638183594	1434.593994140625	-1464.851440429688	-196.8602142333985	1357.292846679688	-1430.3251953125	55.65151596069337	1395.946899414063	-1437.918212890625	52.01417922973634	1404.069702148438	-1511.118408203125	130.3405456542969	1421.038208007813	-1439.056274414063	-355.7377929687501	1576.71240234375	-954.1843872070315	-261.3403625488282	1515.455322265625	-793.5103759765627	-224.3663482666016	1536.561767578125	-820.669616699219	-193.5555725097657	1519.109008789063	-773.5787353515627	-148.0686645507813	1513.769775390625	-759.7927246093751	-147.7763366699219	1426.48828125	-778.466979980469	88.51720428466798	1431.522338867188	-868.9295654296877	108.6343612670899	1455.313598632813	-799.940124511719	169.4660797119141	1423.7919921875	-891.9519042968752	-290.3782653808594	1049.4755859375	-1139.724975585938	-302.0557861328126	1064.079467773438	-917.2708129882815	-473.7674865722657	1128.654418945313	-1039.131225585938	-487.1812744140626	1100.980834960938	-1064.296875	-492.6209716796876	1104.454956054688	-1009.881774902344	-380.3116760253907	831.7044067382815	-1194.578491210938	-334.4432678222657	760.9857177734376	-1184.5078125	-288.6183776855469	771.5679321289065	-1174.903198242188	-354.9633178710938	704.5999755859376	-1170.241821289063	-313.9160766601563	533.3768920898439	-1139.672729492188	-312.9488220214844	523.3367919921876	-1021.255310058594	-295.7591552734376	345.5529174804688	-1071.183715820313	-342.2481994628907	301.5014953613282	-1133.142822265625	-305.4394531250001	296.4850769042969	-1104.858154296875	-317.3718872070313	221.8044738769532	-1067.484497070313	-380.9575500488282	131.2369384765625	-1104.534912109375	-345.9767150878907	136.2493133544922	-1021.577087402344	-447.9766540527345	117.0641403198242	-1062.430297851563	-242.5866241455079	62.05377578735353	-1037.681274414063	-236.4451141357422	58.43211746215822	-1083.220947265625	-284.7067260742188	46.1837387084961	-1136.237548828125	-311.1750793457032	802.933044433594	-842.896911621094	-254.3597717285157	771.1831665039065	-852.7453613281252	-226.9621124267579	786.1658935546877	-861.200622558594	-246.0565032958985	687.7292480468751	-862.9892578125002	-200.8930206298829	572.9118041992189	-869.1838378906252	-186.3649291992188	559.7195434570314	-986.2777099609377	-137.9977416992188	413.9091186523439	-879.1169433593752	-207.0020599365235	325.0674438476563	-862.439880371094	-160.502670288086	330.6764526367188	-865.2686157226565	-130.3870849609375	287.2285461425782	-893.6729736328127	-165.2799377441407	160.3573608398438	-878.5943603515627	-140.2684478759766	185.4808502197266	-958.1506958007815	-213.6058349609376	108.9972229003907	-930.6520996093752	-2.838192701339722	152.3785858154297	-940.8338012695315	1.32411003112793	157.821517944336	-888.5332641601565	-36.33606719970704	124.3758087158203	-843.2572021484377	-4216.665039062501	853.1375732421877	-3944.708496093751	
1219	6.09	-240.2960052490235	1783.016967773438	-1094.17041015625	-407.9856567382814	1694.971801757813	-1168.57421875	-392.5189819335939	1709.108154296875	-1016.975891113281	-439.9982299804689	1557.891723632813	-1092.298461914063	-462.0837707519532	1243.195434570313	-1048.47998046875	-275.4834289550782	1502.971801757813	-1090.724243164063	-368.1622009277344	1543.553466796875	-1241.701538085938	-301.9562377929688	1471.870239257813	-1387.032836914063	-253.6560058593751	1478.005981445313	-1382.430297851563	-258.9019165039063	1449.858642578125	-1436.427978515625	-220.5283813476563	1433.304321289063	-1464.988159179688	-198.833969116211	1355.790649414063	-1430.379272460938	54.36803054809572	1392.17041015625	-1439.997802734375	50.13199615478517	1400.689819335938	-1511.00537109375	129.0198364257813	1417.287475585938	-1438.950073242188	-355.7484741210938	1576.8291015625	-953.686462402344	-261.9064025878907	1514.47607421875	-792.7496337890627	-224.9931945800782	1535.51806640625	-819.6704711914065	-194.2584991455079	1517.718017578125	-772.3899536132815	-148.8922424316407	1512.389526367188	-758.5797729492189	-148.5427551269532	1424.950927734375	-777.732604980469	87.19540405273439	1428.9814453125	-868.378356933594	107.5815658569336	1452.64306640625	-799.466735839844	168.4425048828125	1421.125	-891.8332519531252	-289.5960998535157	1049.874633789063	-1139.599243164063	-301.0659179687501	1064.296020507813	-917.153259277344	-473.0398254394532	1128.872924804688	-1038.845703125	-486.8861389160157	1101.273071289063	-1064.054443359375	-490.8573303222657	1104.664916992188	-1009.39599609375	-379.9614868164063	832.1068115234377	-1194.504028320313	-334.4094848632813	761.3344726562501	-1184.404174804688	-287.8201904296876	771.343200683594	-1174.354614257813	-354.8753051757813	704.9160766601564	-1170.062377929688	-314.0590515136719	533.3986206054689	-1139.535766601563	-313.6772460937501	523.5675048828126	-1021.02001953125	-296.1590576171876	345.6676940917969	-1071.006225585938	-342.9361877441407	301.4721069335938	-1133.060180664063	-305.9751892089844	296.1640014648438	-1104.753784179688	-317.4579467773438	221.9083099365235	-1067.49169921875	-381.0148010253907	131.1622009277344	-1104.517333984375	-346.0180358886719	136.1863555908203	-1021.57958984375	-447.9720153808595	117.0709228515625	-1062.446411132813	-242.5411071777344	62.03066635131837	-1037.73681640625	-236.4451141357422	58.43211746215822	-1083.220947265625	-284.1654052734376	45.9309425354004	-1136.12646484375	-310.4977111816407	803.3261718750002	-842.6468505859377	-253.6106719970704	771.6807861328127	-851.6999511718752	-226.3216094970704	786.2161254882815	-861.1912841796877	-245.8368835449219	687.7338867187501	-862.6309204101565	-201.2214813232422	572.9558105468751	-868.8670654296877	-186.5667114257813	559.5725708007814	-986.0349121093752	-140.1470336914063	413.6005249023439	-878.3630981445315	-209.8883972167969	325.3093872070313	-861.7900390625002	-163.2413330078125	330.3439636230469	-864.625183105469	-133.72216796875	286.5823059082032	-892.5325317382815	-169.7900695800782	160.0773162841797	-877.6564941406252	-144.4950408935547	184.964340209961	-957.359558105469	-218.6613922119141	109.2205352783203	-929.7443847656252	-7.014852046966555	150.0592651367188	-939.6291503906252	-3.19037938117981	156.0030364990235	-887.5830688476565	-41.23075103759766	122.8239974975586	-842.186218261719	-4216.746093750001	853.1196289062502	-3944.635009765626	
1220	6.095	-240.5302734375001	1783.458740234375	-1093.816772460938	-408.261932373047	1695.32177734375	-1168.0966796875	-392.5475463867189	1709.521850585938	-1016.568542480469	-440.061981201172	1558.17724609375	-1091.8740234375	-461.624481201172	1243.305786132813	-1048.29833984375	-275.6613159179688	1503.42529296875	-1090.326416015625	-368.4042053222657	1543.680786132813	-1241.484130859375	-303.0052490234376	1471.265014648438	-1387.102172851563	-254.5198059082032	1477.107666015625	-1382.51171875	-260.2482299804688	1448.89453125	-1436.46875	-221.946029663086	1431.982299804688	-1465.152587890625	-200.6050109863282	1354.24365234375	-1430.147216796875	52.73374176025392	1388.978393554688	-1439.278564453125	48.87892532348634	1397.521606445313	-1511.044799804688	127.6524429321289	1413.4501953125	-1439.028564453125	-355.7237854003907	1576.931762695313	-953.1499023437502	-262.6693725585938	1513.483642578125	-791.747009277344	-225.3095245361329	1534.475463867188	-818.5269165039065	-194.7682800292969	1516.474853515625	-771.3944091796877	-149.3721008300782	1510.7919921875	-757.5330810546876	-149.8592071533203	1423.552612304688	-776.5537109375002	85.8545379638672	1426.56005859375	-867.7261352539065	106.2632369995117	1449.827392578125	-798.7088623046877	166.3720092773438	1418.317749023438	-891.1047363281252	-288.5464782714844	1049.904296875	-1139.403564453125	-300.2239685058594	1064.539916992188	-916.9008789062502	-472.3173217773439	1129.07373046875	-1038.589477539063	-486.2295837402345	1101.43701171875	-1063.812744140625	-490.1489868164064	1104.821533203125	-1009.159729003906	-379.6233825683594	832.4368286132815	-1194.33056640625	-334.2932434082032	761.5200805664064	-1184.317016601563	-288.6336975097657	771.948669433594	-1174.380737304688	-354.9813232421876	705.1815185546876	-1170.098999023438	-314.6616210937501	533.5252685546876	-1139.425048828125	-314.1766357421876	523.6499023437501	-1020.955688476563	-296.4644775390626	345.7537536621094	-1070.968627929688	-342.9140319824219	301.5641174316407	-1132.856323242188	-306.4189147949219	295.8225097656251	-1104.531005859375	-317.5794677734376	221.9716949462891	-1067.537109375	-380.9627685546876	131.1615905761719	-1104.536743164063	-346.0594787597657	136.1738586425782	-1021.565979003906	-447.9787597656251	117.0375900268555	-1062.413696289063	-242.5371856689454	62.04515075683595	-1037.693359375	-236.5835266113282	58.36184310913087	-1083.134887695313	-284.6873474121094	46.17045211791993	-1136.2333984375	-309.8807067871094	803.5710449218752	-842.3794555664065	-253.0530853271485	771.690856933594	-851.4215087890627	-225.7633666992188	786.3206787109377	-861.126159667969	-245.5973358154297	687.7954711914064	-862.378356933594	-201.4510498046876	572.9597167968751	-868.548767089844	-186.9071502685547	559.4243164062501	-985.714782714844	-141.6871948242188	412.8670043945314	-877.8217773437502	-212.8094024658204	325.5217590332032	-861.147399902344	-165.8510131835938	330.1158142089844	-864.0067138671877	-136.6734771728516	285.7927246093751	-892.1463012695315	-174.4148101806641	160.0440673828125	-876.7761230468752	-148.5480041503907	184.4228820800782	-956.3886718750002	-223.8758544921876	109.5135345458985	-928.6063232421877	-11.3533821105957	148.0612182617188	-938.5280761718752	-7.736053466796877	153.966796875	-886.402038574219	-46.22741317749024	121.3367767333985	-841.085632324219	-4216.689941406251	853.0845947265627	-3944.590332031251	
